<?xml version="1.0" standalone="no"?>
<!DOCTYPE svg PUBLIC "-//W3C//DTD SVG 20010904//EN"
 "http://www.w3.org/TR/2001/REC-SVG-20010904/DTD/svg10.dtd">
<svg version="1.0" xmlns="http://www.w3.org/2000/svg"
 width="512.000000pt" height="512.000000pt" viewBox="0 0 512.000000 512.000000"
 preserveAspectRatio="xMidYMid meet">
<metadata>
Created by potrace 1.14, written by Peter Selinger 2001-2017
</metadata>
<g transform="translate(0.000000,512.000000) scale(0.100000,-0.100000)"
fill="#000000" stroke="none">
<path d="M2315 4994 c-548 -58 -1058 -296 -1454 -679 -694 -670 -929 -1683
-601 -2586 184 -505 550 -958 1005 -1244 198 -125 473 -242 705 -300 754 -188
1561 -1 2154 499 269 227 473 487 621 791 122 251 190 465 231 730 26 169 26
543 1 705 -66 414 -219 782 -463 1110 -100 135 -359 394 -494 494 -318 237
-666 386 -1065 457 -96 17 -168 22 -360 24 -132 2 -258 1 -280 -1z m-297
-1650 c61 -30 77 -49 164 -199 238 -405 243 -415 236 -505 -8 -109 -88 -199
-198 -222 -75 -15 -156 8 -211 60 -23 22 -93 130 -175 272 -169 290 -174 301
-174 373 0 143 102 247 245 247 46 0 74 -7 113 -26z m1290 10 c71 -29 132
-107 147 -187 15 -80 1 -113 -194 -454 -384 -672 -494 -859 -524 -891 -77 -80
-198 -100 -296 -47 -87 48 -131 122 -131 223 0 72 -7 59 261 522 113 195 257
443 319 550 120 208 150 248 214 280 50 25 150 27 204 4z m-1652 -679 c87 -54
130 -160 110 -268 -6 -30 -215 -409 -298 -540 -35 -55 -109 -103 -175 -113
-56 -8 -134 11 -182 47 -88 63 -126 196 -83 292 25 56 275 489 308 533 13 18
47 44 76 59 46 23 63 26 124 23 58 -3 80 -9 120 -33z m2050 7 c65 -34 96 -76
250 -345 141 -247 148 -262 152 -322 7 -108 -36 -189 -127 -239 -98 -53 -224
-34 -298 45 -54 58 -323 535 -335 594 -24 121 55 245 182 286 40 13 133 3 176
-19z"/>
</g>
</svg>
